<?xml version="1.0" standalone="no"?>
<!DOCTYPE svg PUBLIC "-//W3C//DTD SVG 20010904//EN"
 "http://www.w3.org/TR/2001/REC-SVG-20010904/DTD/svg10.dtd">
<svg version="1.0" xmlns="http://www.w3.org/2000/svg"
 width="1544.000000pt" height="1378.000000pt" viewBox="0 0 1544.000000 1378.000000"
 preserveAspectRatio="xMidYMid meet">

<g transform="translate(0.000000,1378.000000) scale(0.100000,-0.100000)"
fill="#000000" stroke="none">
<path d="M0 6890 l0 -6890 7720 0 7720 0 0 6890 0 6890 -7720 0 -7720 0 0
-6890z m8569 4985 c362 -15 422 -19 501 -35 25 -5 59 -11 77 -14 17 -2 36 -7
41 -10 4 -3 20 -7 33 -9 14 -3 58 -15 98 -27 41 -12 82 -23 92 -25 11 -2 23
-6 27 -9 5 -3 24 -8 43 -11 19 -3 67 -18 108 -32 41 -14 79 -26 85 -28 6 -1
24 -7 39 -13 16 -7 34 -12 41 -12 6 0 16 -4 22 -10 5 -5 48 -23 94 -40 47 -17
123 -48 170 -69 120 -55 157 -71 165 -71 8 0 61 -22 115 -48 34 -17 160 -99
170 -111 3 -4 25 -22 50 -41 153 -116 367 -331 449 -449 29 -42 64 -111 82
-162 17 -49 37 -89 44 -89 7 0 26 5 44 11 23 8 56 8 119 0 115 -14 119 -15
184 -47 45 -22 62 -37 82 -75 46 -84 56 -124 46 -180 -8 -42 -6 -60 10 -107
11 -31 20 -60 20 -65 0 -5 -21 -29 -47 -53 l-48 -44 71 0 c45 0 102 -9 151
-23 68 -20 96 -35 198 -112 191 -144 347 -293 396 -378 23 -40 51 -85 62 -102
39 -56 127 -216 263 -480 94 -181 124 -272 198 -590 39 -171 67 -479 73 -825
l5 -265 -36 -202 c-20 -111 -47 -239 -60 -285 -13 -46 -29 -120 -35 -165 -15
-107 -108 -382 -164 -486 -24 -45 -84 -161 -133 -257 -48 -96 -127 -247 -174
-335 -48 -88 -112 -212 -143 -275 -35 -72 -72 -132 -99 -160 -24 -25 -72 -88
-107 -140 -35 -52 -76 -108 -91 -125 -15 -16 -45 -57 -66 -90 -39 -60 -134
-184 -229 -299 -28 -34 -86 -108 -130 -166 -44 -58 -132 -159 -196 -225 -65
-66 -150 -160 -190 -210 -84 -104 -276 -295 -399 -398 -47 -39 -132 -118 -190
-176 -58 -59 -125 -120 -150 -136 -24 -17 -115 -97 -201 -180 -209 -201 -362
-322 -607 -479 -128 -82 -180 -109 -194 -100 -6 4 -8 3 -5 -3 3 -5 -55 -35
-131 -67 -75 -31 -146 -62 -157 -68 -11 -7 -65 -38 -120 -70 -55 -32 -124 -65
-152 -74 -29 -8 -55 -19 -58 -24 -3 -5 -13 -6 -22 -3 -9 4 -14 2 -10 -3 8 -13
-79 -61 -124 -68 -20 -3 -44 -8 -55 -12 -10 -4 -16 -4 -13 0 4 4 40 20 80 36
41 16 69 29 62 30 -6 0 -76 -25 -155 -56 -132 -52 -152 -57 -253 -64 -118 -8
-168 -18 -160 -30 2 -4 -6 -5 -20 -3 -13 3 -51 -4 -84 -16 -34 -12 -74 -21
-89 -21 -66 0 -217 -33 -253 -55 -44 -29 -79 -36 -195 -40 -49 -1 -125 -10
-169 -20 -52 -11 -138 -18 -245 -20 -185 -3 -416 -17 -424 -25 -3 -3 51 -4
121 -2 91 3 124 1 119 -7 -4 -6 -15 -11 -24 -11 -14 0 -14 -2 -3 -9 7 -5 11
-13 7 -19 -3 -6 4 -13 16 -15 13 -3 -11 -3 -52 0 -76 4 -263 6 -335 3 -22 -1
-83 3 -135 9 -52 7 -144 17 -205 24 -73 9 -154 27 -240 54 -71 23 -190 55
-263 72 -157 36 -489 170 -647 260 -55 32 -148 86 -207 119 -237 136 -429 281
-519 392 -24 30 -83 94 -131 143 -160 160 -235 298 -223 410 5 50 3 61 -12 73
-17 13 -17 13 3 14 15 0 24 8 29 27 3 15 15 33 26 41 23 16 25 32 4 32 -8 0
-15 -4 -15 -8 0 -4 -21 -18 -47 -31 -30 -15 -42 -25 -34 -30 9 -6 9 -10 -2
-19 -22 -18 -98 25 -122 70 -16 28 -24 35 -35 28 -8 -6 -10 -10 -5 -11 15 -1
-27 -18 -45 -18 -9 0 -8 4 5 9 l20 9 -20 0 c-11 0 -27 -4 -35 -9 -8 -5 -10
-10 -3 -10 6 0 10 -8 8 -18 -3 -23 -30 -17 -72 16 -70 57 -88 148 -49 257 20
55 22 72 13 84 -8 10 -8 13 -1 8 15 -9 46 38 42 62 -5 30 20 49 103 76 61 21
94 39 137 77 31 27 69 57 84 66 56 33 21 52 -49 26 -26 -10 -59 -25 -73 -34
-14 -9 -53 -28 -88 -43 -35 -15 -78 -37 -95 -50 -33 -23 -120 -60 -169 -71
-17 -4 -25 -11 -22 -19 5 -13 -21 -30 -63 -42 -16 -4 -20 -12 -17 -30 3 -19 0
-25 -13 -25 -16 -1 -16 -2 1 -15 30 -23 3 -18 -82 15 -236 92 -504 404 -750
872 -139 266 -217 447 -295 685 -78 235 -89 278 -127 476 -32 173 -36 202 -50
384 -17 214 -14 254 30 498 157 874 240 1167 425 1505 34 63 79 149 100 190
98 197 375 641 543 870 186 254 657 760 912 980 52 46 122 108 155 140 64 61
258 222 371 305 37 28 123 92 191 142 69 51 179 125 246 165 67 39 178 108
247 154 111 72 736 400 800 419 13 4 85 36 160 71 177 83 657 240 870 284 47
10 220 39 385 64 165 26 336 54 380 63 44 9 154 19 245 23 91 4 172 7 180 8 8
1 174 -5 369 -13z m-5061 -8229 c-5 -13 -25 -31 -44 -39 -33 -16 -34 -16 -34
3 0 12 12 26 30 35 17 9 30 20 30 25 0 5 6 7 14 4 12 -4 12 -11 4 -28z m4372
-1855 c39 -11 5 -19 -89 -20 -46 -1 -88 -4 -95 -8 -8 -4 -8 -3 0 6 19 21 138
35 184 22z m-527 -118 c-7 -2 -19 -2 -25 0 -7 3 -2 5 12 5 14 0 19 -2 13 -5z
m54 1 c-3 -3 -12 -4 -19 -1 -8 3 -5 6 6 6 11 1 17 -2 13 -5z m-412 -14 c-3 -5
-16 -10 -28 -9 -20 1 -20 2 3 9 14 4 26 8 28 9 2 1 0 -3 -3 -9z m52 4 c-3 -3
-12 -4 -19 -1 -8 3 -5 6 6 6 11 1 17 -2 13 -5z m88 -4 c4 -6 -11 -10 -37 -10
-31 0 -39 3 -28 10 20 13 57 13 65 0z m14 -54 c-5 -6 -50 -15 -99 -21 l-35 -5
40 14 c37 14 104 21 94 12z"/>
<path d="M10348 9897 c-43 -23 -76 -42 -74 -45 6 -5 143 66 151 78 3 5 5 9 3
9 -2 -1 -38 -20 -80 -42z"/>
<path d="M9884 9634 c-18 -14 -18 -15 4 -4 12 6 22 13 22 15 0 8 -5 6 -26 -11z"/>
<path d="M9754 9564 c-18 -14 -18 -15 4 -4 12 6 22 13 22 15 0 8 -5 6 -26 -11z"/>
<path d="M8910 8993 c-25 -13 -58 -31 -73 -40 -16 -8 -27 -17 -24 -19 5 -6 83
32 140 66 47 29 10 23 -43 -7z"/>
<path d="M6535 8390 l-30 -8 33 -1 c17 0 32 4 32 9 0 6 -1 9 -2 9 -2 -1 -16
-5 -33 -9z"/>
<path d="M6648 8073 c7 -3 16 -2 19 1 4 3 -2 6 -13 5 -11 0 -14 -3 -6 -6z"/>
<path d="M6618 7703 c7 -3 16 -2 19 1 4 3 -2 6 -13 5 -11 0 -14 -3 -6 -6z"/>
<path d="M6063 7513 c9 -2 23 -2 30 0 6 3 -1 5 -18 5 -16 0 -22 -2 -12 -5z"/>
<path d="M6008 7503 c7 -3 16 -2 19 1 4 3 -2 6 -13 5 -11 0 -14 -3 -6 -6z"/>
<path d="M6148 7283 c6 -2 18 -2 25 0 6 3 1 5 -13 5 -14 0 -19 -2 -12 -5z"/>
<path d="M6245 7210 c-3 -5 -1 -10 4 -10 6 0 11 5 11 10 0 6 -2 10 -4 10 -3 0
-8 -4 -11 -10z"/>
<path d="M5988 6793 c7 -3 16 -2 19 1 4 3 -2 6 -13 5 -11 0 -14 -3 -6 -6z"/>
<path d="M6093 6633 c9 -2 25 -2 35 0 9 3 1 5 -18 5 -19 0 -27 -2 -17 -5z"/>
<path d="M8203 6573 c9 -2 25 -2 35 0 9 3 1 5 -18 5 -19 0 -27 -2 -17 -5z"/>
<path d="M6848 6403 c7 -3 16 -2 19 1 4 3 -2 6 -13 5 -11 0 -14 -3 -6 -6z"/>
<path d="M5898 5403 c7 -3 16 -2 19 1 4 3 -2 6 -13 5 -11 0 -14 -3 -6 -6z"/>
<path d="M4904 4911 c-18 -11 -35 -25 -40 -32 -7 -12 58 23 81 43 17 15 -9 8
-41 -11z"/>
<path d="M4544 4895 c-10 -8 -14 -15 -8 -15 5 0 19 7 30 15 10 8 14 15 8 15
-5 0 -19 -7 -30 -15z"/>
<path d="M5028 4583 c7 -3 16 -2 19 1 4 3 -2 6 -13 5 -11 0 -14 -3 -6 -6z"/>
<path d="M3860 4110 c-8 -11 -20 -20 -27 -20 -6 0 -14 -4 -17 -9 -7 -11 34 -2
50 10 6 5 14 6 18 2 4 -4 4 1 0 11 -5 13 -4 17 4 12 6 -3 13 -2 17 4 12 19
-31 10 -45 -10z"/>
<path d="M9710 3510 c-9 -6 -10 -10 -3 -10 6 0 15 5 18 10 8 12 4 12 -15 0z"/>
<path d="M9645 2770 c-3 -5 -2 -10 4 -10 5 0 13 5 16 10 3 6 2 10 -4 10 -5 0
-13 -4 -16 -10z"/>
<path d="M6126 1751 c-3 -4 6 -6 19 -3 14 2 25 6 25 8 0 8 -39 4 -44 -5z"/>
<path d="M6270 1716 c0 -4 -10 -6 -23 -2 -13 3 -36 2 -52 -3 -25 -6 -27 -8
-10 -12 19 -5 174 -4 245 0 l35 3 -30 10 c-38 12 -165 16 -165 4z"/>
<path d="M6753 1623 c9 -2 23 -2 30 0 6 3 -1 5 -18 5 -16 0 -22 -2 -12 -5z"/>
</g>
</svg>
